<?xml version="1.0" standalone="no"?>
<!DOCTYPE svg PUBLIC "-//W3C//DTD SVG 20010904//EN"
 "http://www.w3.org/TR/2001/REC-SVG-20010904/DTD/svg10.dtd">
<svg version="1.0" xmlns="http://www.w3.org/2000/svg"
 width="216.000000pt" height="216.000000pt" viewBox="0 0 216.000000 216.000000"
 preserveAspectRatio="xMidYMid meet">
<metadata>
Created by potrace 1.11, written by Peter Selinger 2001-2013
</metadata>
<g transform="translate(0.000000,216.000000) scale(0.100000,-0.100000)"
fill="#000000" stroke="none">
<path d="M650 1552 l0 -110 -48 5 -48 5 1 -364 c0 -329 2 -367 18 -391 31 -48
77 -68 188 -82 24 -3 96 -14 159 -25 143 -24 186 -30 230 -36 19 -2 60 -9 90
-14 30 -5 73 -12 95 -15 22 -3 45 -8 52 -10 36 -12 153 -16 171 -6 46 24 46
31 47 528 l0 472 -25 6 c-20 4 -281 45 -440 70 -14 2 -69 11 -122 19 -111 18
-262 42 -325 51 l-43 7 0 -110z m0 -855 c0 -45 -12 -41 -43 12 l-18 31 30 -2
c29 -2 31 -5 31 -41z"/>
<path d="M288 1332 c-64 -53 -117 -102 -118 -108 0 -9 24 -41 78 -103 13 -14
53 -61 90 -103 61 -71 92 -94 92 -69 0 10 -18 32 -203 244 -9 11 -16 24 -15
28 2 4 51 49 111 99 59 50 107 95 107 101 0 23 -33 2 -142 -89z"/>
<path d="M1730 1210 c0 -8 72 -96 152 -185 52 -59 68 -78 68 -84 0 -4 -26 -28
-57 -55 -161 -133 -182 -156 -150 -156 15 0 241 188 245 204 4 15 -228 286
-245 286 -7 0 -13 -4 -13 -10z"/>
</g>
</svg>
